# xmcd CD database file
#
# Track frame offsets:
#	182
#	18175
#	35267
#	53000
#	69202
#	87917
#	109097
#
# Disc length: 1729 seconds
#
# Revision: 28
# Processed by: cddbd v1.5.2PL0 Copyright (c) Steve Scherf et al.
# Submitted via: CDex 2.21
#
DISCID=4806bf07
DTITLE=Mariah Carey - MTV Unplugged EP
DYEAR=1992
DGENRE=R&B/Pop
TTITLE0=Emotions
TTITLE1=If It's Over
TTITLE2=Someday
TTITLE3=Vision Of Love
TTITLE4=Make It Happen
TTITLE5=I'll Be There
TTITLE6=Can't Let Go
EXTD=YEAR: 1992
EXTT0=
EXTT1=
EXTT2=
EXTT3=
EXTT4=
EXTT5=
EXTT6=
PLAYORDER=
